<svg width="1360" height="160" viewBox="0 0 1360 160" fill="none" xmlns="http://www.w3.org/2000/svg">
<path d="M185.343 58.1767C159.864 54.8586 126.719 50.877 87.0347 50.877C35.4001 50.877 0 65.2552 0 110.602C0 152.631 27.2829 168.115 68.0945 168.115C95.6029 168.115 122.209 160.373 144.757 150.861L147.914 165.903H185.343V58.3979H185.118L185.343 58.1767ZM42.6154 109.054C42.6154 91.3573 56.1442 84.5 82.7506 84.5C101.691 84.5 123.788 85.606 142.728 87.3757V122.547C118.602 129.404 96.0538 133.607 76.4372 133.607C51.8601 133.607 42.6154 126.971 42.6154 109.054Z" fill="white"/>
<path d="M224.161 112.814C224.161 154.179 249.414 169 298.343 169C323.371 169 347.723 164.797 365.987 160.373L357.87 127.192C340.959 130.51 324.048 133.607 302.176 133.607C275.119 133.607 267.002 128.077 267.002 108.39V86.712H356.742V53.089H267.002V23.8901H232.729L225.288 53.089H199.584V86.712H224.161V112.814Z" fill="white"/>
<path d="M588.041 122.99C588.041 91.7997 568.199 76.7579 524.005 74.3246L440.127 69.4581C426.147 68.5733 420.285 67.2461 420.285 58.8403C420.285 49.7709 426.373 47.5589 467.861 47.5589C506.418 47.5589 547.004 51.7618 573.159 56.8495L580.6 23.0052C550.161 16.5903 505.741 12.3874 478.458 12.3874C407.207 12.3874 376.993 26.1021 376.993 59.9463C376.993 88.0393 394.355 103.081 442.156 105.293L527.162 110.16C539.112 111.266 544.749 112.372 544.749 121.662C544.749 130.732 538.21 133.607 502.134 133.607C455.91 133.607 417.579 127.635 386.012 120.777L379.473 156.834C407.207 163.47 451.626 168.779 489.958 168.779C565.944 168.779 588.041 154.843 588.041 122.99Z" fill="white"/>
<path d="M621.611 112.814C621.611 154.179 646.864 169 695.793 169C720.821 169 745.173 164.797 763.437 160.373L755.319 127.192C738.409 130.51 721.498 133.607 699.626 133.607C672.569 133.607 664.452 128.077 664.452 108.39V86.712H754.192V53.089H664.452V23.8901H630.179L622.738 53.089H597.034V86.712H621.611V112.814Z" fill="white"/>
<path d="M958.884 58.1767C933.405 54.8586 900.26 50.877 860.576 50.877C808.941 50.877 773.541 65.2552 773.541 110.602C773.541 152.631 800.824 168.115 841.635 168.115C869.144 168.115 895.75 160.373 918.298 150.861L921.455 165.903H958.884V58.3979H958.659L958.884 58.1767ZM816.156 109.054C816.156 91.3573 829.685 84.5 856.292 84.5C875.232 84.5 897.329 85.606 916.269 87.3757V122.547C892.143 129.404 869.595 133.607 849.978 133.607C825.401 133.607 816.156 126.971 816.156 109.054Z" fill="white"/>
<path d="M977.22 109.275C977.22 150.198 1006.31 168.336 1074.85 168.336C1104.39 168.336 1132.35 164.576 1153.32 159.709L1144.75 126.308C1128.07 129.626 1104.39 133.165 1068.54 133.165C1032.69 133.165 1019.84 128.077 1019.84 109.275C1019.84 90.6937 1032.69 85.3848 1068.54 85.3848C1104.39 85.3848 1128.07 88.9241 1144.75 92.2422L1153.32 58.8403C1132.35 53.9738 1103.71 50.2134 1074.85 50.2134C1006.31 50.2134 977.22 68.1309 977.22 109.275Z" fill="white"/>
<path d="M1215.69 0H1173.08V165.903H1215.69V123.432H1248.16L1302.73 165.903H1360L1284.69 106.399L1357.07 53.089H1300.25L1248.84 89.3665H1215.69V0Z" fill="white"/>
</svg>
