<svg width="242" height="37" viewBox="0 0 242 37" fill="none" xmlns="http://www.w3.org/2000/svg">
<path d="M6.875 0H43.5417L40.1042 9.16667H3.4375L6.875 0Z" fill="white"/>
<path opacity="0.6" d="M13.75 13.75H50.4167L46.9792 22.9167H10.3125L13.75 13.75Z" fill="white"/>
<g opacity="0.3">
<path d="M3.4375 27.5H40.1042L36.6667 36.6667H0L3.4375 27.5Z" fill="white"/>
</g>
<path d="M89.1935 14.9066C85.8791 14.4747 81.5673 13.9564 76.405 13.9564C69.6881 13.9564 65.083 15.8281 65.083 21.7312C65.083 27.2025 68.6321 29.2182 73.9411 29.2182C77.5196 29.2182 80.9807 28.2103 83.9139 26.9721L84.3245 28.9302H89.1935V14.9354H89.1642L89.1935 14.9066ZM70.6267 21.5297C70.6267 19.226 72.3866 18.3333 75.8477 18.3333C78.3115 18.3333 81.186 18.4773 83.6499 18.7077V23.2862C80.5114 24.1789 77.5782 24.726 75.0264 24.726C71.8293 24.726 70.6267 23.8621 70.6267 21.5297Z" fill="white"/>
<path d="M94.2431 22.0192C94.2431 27.404 97.5283 29.3333 103.893 29.3333C107.149 29.3333 110.317 28.7862 112.693 28.2103L111.637 23.8909C109.437 24.3229 107.237 24.726 104.392 24.726C100.872 24.726 99.8161 24.0061 99.8161 21.4433V18.6213H111.49V14.2443H99.8161V10.4433H95.3577L94.3898 14.2443H91.046V18.6213H94.2431V22.0192Z" fill="white"/>
<path d="M141.579 23.3438C141.579 19.2836 138.998 17.3255 133.249 17.0087L122.337 16.3752C120.519 16.26 119.756 16.0873 119.756 14.993C119.756 13.8124 120.548 13.5244 125.945 13.5244C130.961 13.5244 136.24 14.0716 139.643 14.7339L140.611 10.3281C136.651 9.49303 130.873 8.94591 127.324 8.94591C118.055 8.94591 114.124 10.7312 114.124 15.137C114.124 18.7941 116.383 20.7522 122.601 21.0401L133.659 21.6737C135.214 21.8176 135.947 21.9616 135.947 23.171C135.947 24.3517 135.096 24.726 130.403 24.726C124.39 24.726 119.404 23.9485 115.298 23.0559L114.447 27.7496C118.055 28.6134 123.833 29.3045 128.82 29.3045C138.704 29.3045 141.579 27.4904 141.579 23.3438Z" fill="white"/>
<path d="M145.946 22.0192C145.946 27.404 149.231 29.3333 155.596 29.3333C158.852 29.3333 162.019 28.7862 164.395 28.2103L163.339 23.8909C161.139 24.3229 158.94 24.726 156.094 24.726C152.575 24.726 151.519 24.0061 151.519 21.4433V18.6213H163.193V14.2443H151.519V10.4433H147.06L146.092 14.2443H142.749V18.6213H145.946V22.0192Z" fill="white"/>
<path d="M189.82 14.9066C186.506 14.4747 182.194 13.9564 177.032 13.9564C170.315 13.9564 165.71 15.8281 165.71 21.7312C165.71 27.2025 169.259 29.2182 174.568 29.2182C178.146 29.2182 181.607 28.2103 184.541 26.9721L184.951 28.9302H189.82V14.9354H189.791L189.82 14.9066ZM171.253 21.5297C171.253 19.226 173.013 18.3333 176.474 18.3333C178.938 18.3333 181.813 18.4773 184.277 18.7077V23.2862C181.138 24.1789 178.205 24.726 175.653 24.726C172.456 24.726 171.253 23.8621 171.253 21.5297Z" fill="white"/>
<path d="M192.205 21.5585C192.205 26.8857 195.989 29.247 204.906 29.247C208.748 29.247 212.386 28.7574 215.113 28.1239L213.999 23.7758C211.828 24.2077 208.748 24.6684 204.085 24.6684C199.421 24.6684 197.749 24.0061 197.749 21.5585C197.749 19.1396 199.421 18.4485 204.085 18.4485C208.748 18.4485 211.828 18.9093 213.999 19.3412L215.113 14.993C212.386 14.3595 208.66 13.87 204.906 13.87C195.989 13.87 192.205 16.2025 192.205 21.5585Z" fill="white"/>
<path d="M223.227 7.33334H217.684V28.9302H223.227V23.4014H227.451L234.549 28.9302H242L232.203 21.1841L241.618 14.2443H234.227L227.539 18.9669H223.227V7.33334Z" fill="white"/>
</svg>
