<svg width="24" height="25" viewBox="0 0 24 25" fill="none" xmlns="http://www.w3.org/2000/svg">
<path d="M16.5 2.58334H7.5C6.10807 2.58483 4.77358 3.13843 3.78933 4.12268C2.80509 5.10692 2.25149 6.44141 2.25 7.83334V16.8333C2.25149 18.2253 2.80509 19.5598 3.78933 20.544C4.77358 21.5283 6.10807 22.0819 7.5 22.0833H16.5C17.8919 22.0819 19.2264 21.5283 20.2107 20.544C21.1949 19.5598 21.7485 18.2253 21.75 16.8333V7.83334C21.7485 6.44141 21.1949 5.10692 20.2107 4.12268C19.2264 3.13843 17.8919 2.58483 16.5 2.58334ZM12 16.8333C11.11 16.8333 10.24 16.5694 9.49993 16.075C8.75991 15.5805 8.18314 14.8777 7.84254 14.0554C7.50195 13.2332 7.41283 12.3284 7.58647 11.4554C7.7601 10.5825 8.18868 9.7807 8.81802 9.15136C9.44736 8.52203 10.2492 8.09344 11.1221 7.91981C11.995 7.74618 12.8998 7.83529 13.7221 8.17589C14.5443 8.51648 15.2471 9.09326 15.7416 9.83328C16.2361 10.5733 16.5 11.4433 16.5 12.3333C16.4988 13.5264 16.0243 14.6703 15.1806 15.514C14.337 16.3576 13.1931 16.8321 12 16.8333ZM17.625 7.83334C17.4025 7.83334 17.185 7.76736 17 7.64375C16.815 7.52013 16.6708 7.34443 16.5856 7.13886C16.5005 6.9333 16.4782 6.7071 16.5216 6.48887C16.565 6.27064 16.6722 6.07018 16.8295 5.91285C16.9868 5.75551 17.1873 5.64837 17.4055 5.60496C17.6238 5.56155 17.85 5.58383 18.0555 5.66898C18.2611 5.75413 18.4368 5.89832 18.5604 6.08333C18.684 6.26833 18.75 6.48584 18.75 6.70834C18.75 7.00671 18.6315 7.29286 18.4205 7.50384C18.2095 7.71482 17.9234 7.83334 17.625 7.83334ZM15 12.3333C15 12.9267 14.8241 13.5067 14.4944 14.0001C14.1648 14.4934 13.6962 14.8779 13.1481 15.105C12.5999 15.332 11.9967 15.3915 11.4147 15.2757C10.8328 15.1599 10.2982 14.8742 9.87868 14.4547C9.45912 14.0351 9.1734 13.5006 9.05764 12.9186C8.94189 12.3367 9.0013 11.7335 9.22836 11.1853C9.45542 10.6371 9.83994 10.1686 10.3333 9.83893C10.8266 9.50929 11.4067 9.33334 12 9.33334C12.7956 9.33334 13.5587 9.64941 14.1213 10.212C14.6839 10.7746 15 11.5377 15 12.3333Z" fill="white"/>
</svg>
