<svg width="24" height="25" viewBox="0 0 24 25" fill="none" xmlns="http://www.w3.org/2000/svg">
<path d="M20.25 2.58334H3.75C3.35218 2.58334 2.97064 2.74138 2.68934 3.02268C2.40804 3.30399 2.25 3.68552 2.25 4.08334V20.5833C2.25 20.9812 2.40804 21.3627 2.68934 21.644C2.97064 21.9253 3.35218 22.0833 3.75 22.0833H20.25C20.6478 22.0833 21.0294 21.9253 21.3107 21.644C21.592 21.3627 21.75 20.9812 21.75 20.5833V4.08334C21.75 3.68552 21.592 3.30399 21.3107 3.02268C21.0294 2.74138 20.6478 2.58334 20.25 2.58334ZM9 16.8333C9 17.0323 8.92098 17.223 8.78033 17.3637C8.63968 17.5043 8.44891 17.5833 8.25 17.5833C8.05109 17.5833 7.86032 17.5043 7.71967 17.3637C7.57902 17.223 7.5 17.0323 7.5 16.8333V10.8333C7.5 10.6344 7.57902 10.4437 7.71967 10.303C7.86032 10.1624 8.05109 10.0833 8.25 10.0833C8.44891 10.0833 8.63968 10.1624 8.78033 10.303C8.92098 10.4437 9 10.6344 9 10.8333V16.8333ZM8.25 9.33334C8.0275 9.33334 7.80999 9.26736 7.62498 9.14375C7.43998 9.02013 7.29578 8.84443 7.21064 8.63886C7.12549 8.4333 7.10321 8.2071 7.14662 7.98887C7.19002 7.77064 7.29717 7.57018 7.4545 7.41285C7.61184 7.25551 7.81229 7.14837 8.03052 7.10496C8.24875 7.06155 8.47495 7.08383 8.68052 7.16898C8.88609 7.25413 9.06179 7.39832 9.1854 7.58333C9.30902 7.76833 9.375 7.98584 9.375 8.20834C9.375 8.50671 9.25647 8.79286 9.0455 9.00384C8.83452 9.21482 8.54837 9.33334 8.25 9.33334ZM17.25 16.8333C17.25 17.0323 17.171 17.223 17.0303 17.3637C16.8897 17.5043 16.6989 17.5833 16.5 17.5833C16.3011 17.5833 16.1103 17.5043 15.9697 17.3637C15.829 17.223 15.75 17.0323 15.75 16.8333V13.4583C15.75 12.9611 15.5525 12.4841 15.2008 12.1325C14.8492 11.7809 14.3723 11.5833 13.875 11.5833C13.3777 11.5833 12.9008 11.7809 12.5492 12.1325C12.1975 12.4841 12 12.9611 12 13.4583V16.8333C12 17.0323 11.921 17.223 11.7803 17.3637C11.6397 17.5043 11.4489 17.5833 11.25 17.5833C11.0511 17.5833 10.8603 17.5043 10.7197 17.3637C10.579 17.223 10.5 17.0323 10.5 16.8333V10.8333C10.5009 10.6496 10.5693 10.4727 10.692 10.336C10.8148 10.1993 10.9834 10.1124 11.166 10.0919C11.3485 10.0713 11.5323 10.1184 11.6824 10.2243C11.8325 10.3303 11.9385 10.4876 11.9803 10.6665C12.4877 10.3223 13.0792 10.1228 13.6914 10.0895C14.3036 10.0561 14.9133 10.1901 15.455 10.4772C15.9968 10.7642 16.4501 11.1933 16.7664 11.7186C17.0826 12.2438 17.2498 12.8453 17.25 13.4583V16.8333Z" fill="white"/>
</svg>
