<svg width="24" height="25" viewBox="0 0 24 25" fill="none" xmlns="http://www.w3.org/2000/svg">
<path d="M23.0308 7.61397L20.2277 10.4171C19.6614 16.9815 14.1255 22.0833 7.50017 22.0833C6.13892 22.0833 5.01673 21.8677 4.16454 21.4421C3.47736 21.098 3.19611 20.7296 3.12579 20.6246C3.0631 20.5306 3.02246 20.4236 3.00692 20.3117C2.99138 20.1997 3.00133 20.0857 3.03604 19.9782C3.07075 19.8706 3.12931 19.7723 3.20735 19.6906C3.2854 19.6088 3.3809 19.5458 3.48673 19.5062C3.51111 19.4968 5.75923 18.6333 7.18704 16.9899C6.39522 16.3389 5.70399 15.5744 5.13579 14.7212C3.97329 12.9952 2.67204 9.99709 3.07329 5.51678C3.08601 5.37441 3.13915 5.23865 3.22644 5.12547C3.31373 5.01229 3.43154 4.92641 3.566 4.87795C3.70047 4.82948 3.84598 4.82045 3.9854 4.85191C4.12483 4.88337 4.25236 4.95402 4.35298 5.05553C4.38579 5.08834 7.47298 8.15865 11.2474 9.15428V8.58334C11.2459 7.98465 11.3643 7.39172 11.5955 6.83947C11.8267 6.28722 12.1661 5.78681 12.5936 5.36772C13.0088 4.95308 13.5029 4.62582 14.0466 4.40523C14.5904 4.18463 15.1728 4.07519 15.7595 4.08334C16.5466 4.0911 17.3183 4.30239 17.9996 4.69666C18.6808 5.09093 19.2485 5.65476 19.6474 6.33334H22.5002C22.6486 6.33322 22.7937 6.37715 22.9172 6.45955C23.0406 6.54195 23.1368 6.65913 23.1936 6.79625C23.2505 6.93337 23.2653 7.08426 23.2363 7.22982C23.2073 7.37538 23.1358 7.50907 23.0308 7.61397Z" fill="white"/>
</svg>
